HIERARCHY
ROOT Hips
{
  OFFSET 0.382225 96.6805 0.598322
  CHANNELS 6 Xposition Yposition Zposition Zrotation Xrotation Yrotation
  JOINT Spine
  {
    OFFSET 10.8089 -0.851416 0
    CHANNELS 3 Zrotation Xrotation Yrotation
    JOINT Spine1
    {
      OFFSET 18.8753 3.80116 0
      CHANNELS 3 Zrotation Xrotation Yrotation
      JOINT Spine2
      {
        OFFSET 13.4073 0.420477 0
        CHANNELS 3 Zrotation Xrotation Yrotation
        JOINT LeftShoulder
        {
          OFFSET 11.8837 -2.73209 -3.78198
          CHANNELS 3 Zrotation Xrotation Yrotation
          JOINT LeftArm
          {
            OFFSET 15.7849 0 -2.35849e-005
            CHANNELS 3 Zrotation Xrotation Yrotation
            JOINT LeftForeArm
            {
              OFFSET 30.3399 0 0
              CHANNELS 3 Zrotation Xrotation Yrotation
              JOINT LeftHand
              {
                OFFSET 26.9751 0 2.45913e-005
                CHANNELS 3 Zrotation Xrotation Yrotation
                End Site
                {
                  OFFSET 8 0 0
                }
              }
            }
          }
        }
        JOINT RightShoulder
        {
          OFFSET 11.8838 -2.7321 3.782
          CHANNELS 3 Zrotation Xrotation Yrotation
          JOINT RightArm
          {
            OFFSET -15.7848 0 -1.07056e-005
            CHANNELS 3 Zrotation Xrotation Yrotation
            JOINT RightForeArm
            {
              OFFSET -30.34 1.02096e-005 -2.53607e-005
              CHANNELS 3 Zrotation Xrotation Yrotation
              JOINT RightHand
              {
                OFFSET -26.9752 2.07668e-005 0
                CHANNELS 3 Zrotation Xrotation Yrotation
                End Site
                {
                  OFFSET -8 0 0
                }
              }
            }
          }
        }
        JOINT Neck
        {
          OFFSET 16.5588 -0.355318 0
          CHANNELS 3 Zrotation Xrotation Yrotation
          JOINT Head
          {
            OFFSET 9.28361 0.364157 0
            CHANNELS 3 Zrotation Xrotation Yrotation
            End Site
            {
              OFFSET 0 0 0
            }
          }
        }
      }
    }
  }
  JOINT LeftUpLeg
  {
    OFFSET -1.44883 -0.531424 -9.00581
    CHANNELS 3 Zrotation Xrotation Yrotation
    JOINT LeftLeg
    {
      OFFSET -42.572 0.0788889 -0.011964
      CHANNELS 3 Zrotation Xrotation Yrotation
      JOINT LeftFoot
      {
        OFFSET -40.1967 0 0
        CHANNELS 3 Zrotation Xrotation Yrotation
				JOINT LeftToe
        {
          OFFSET -10.4538 -16.5779 0.0801563
          CHANNELS 3 Zrotation Xrotation Yrotation
          End Site
          {
            OFFSET -1.0 -1.0 0.0
          }
        }
      }
    }
  }
  JOINT RightUpLeg
  {
    OFFSET -1.44865 -0.531427 9.0058
    CHANNELS 3 Zrotation Xrotation Yrotation
    JOINT RightLeg
    {
      OFFSET 42.5723 -3.24776e-005 0
      CHANNELS 3 Zrotation Xrotation Yrotation
      JOINT RightFoot
      {
        OFFSET 40.1968 0 -1.14003e-005
        CHANNELS 3 Zrotation Xrotation Yrotation
				JOINT RightToe
        {
          OFFSET 10.4538 16.5778 -0.0801573
          CHANNELS 3 Zrotation Xrotation Yrotation
          End Site
          {
            OFFSET -1.0 -1.0 0.0
          }
        }
      }
    }
  }
}
MOTION
Frames:	13
Frame Time:	0.0333333
44.543 96.1352 62.5959 72.4127 -87.4395 -16.9649 -11.5227 -4.51503 0.799454 20.5566 -0.351706 -0.606693 2.7794 1.93418e-006 1.65929e-005 -2.2641 13.0379 80.2271 -16.5823 25.8874 8.36423 -0.309613 -15.0454 7.49711 -159.861 -77.2338 -160.929 -177.505 10.7182 76.6234 -16.641 0.646108 10.8917 -1.98849 -6.59965 -0.0893566 -56.1945 -84.7402 -54.7909 -23.508 4.63459e-006 -5.90926e-006 13.948 -13.3108 2.79734 30.06 44.2141 -26.8846 -21.004 -5.69712 0.177746 0.618874 -27.6566 9.82044 -90 0 0 -167.468 20.5556 -10.0288 -20.1967 -5.34484 -0.145227 10.6317 -18.4041 3.82625 -90 0 0
45.957 96.0643 62.7219 70.5721 -88.0383 -19.9675 -11.8207 -4.23117 2.12104 20.4969 -0.348155 -0.601305 2.7794 1.93418e-006 1.65929e-005 -2.23903 13.0974 80.0674 -16.5858 25.2524 7.86578 -0.431554 -15.0431 7.4382 -160.275 -76.9756 -161.099 -177.385 10.5203 76.2143 -16.4406 0.233926 10.8185 -0.00690952 -6.44212 -0.000251382 -65.5552 -85.7409 -64.57 -23.508 4.63459e-006 -5.90926e-006 14.5801 -13.5909 3.07979 27.4193 45.0786 -24.1292 -20.6088 -5.71061 0.218251 1.51695 -26.9812 10.4649 -90 0 0 -165.826 18.8308 -12.0346 -22.496 -5.22674 -0.45413 11.0456 -17.7621 3.2075 -90 0 0
47.3619 95.9575 62.8401 62.7729 -88.8301 -29.054 -12.1146 -3.96372 3.6066 20.3794 -0.341194 -0.590682 2.7794 1.93418e-006 1.65929e-005 -2.19495 13.1201 79.7443 -16.22 24.5683 7.54855 -0.818464 -15.0348 7.25115 -159.478 -77.0759 -160.15 -177.256 10.207 75.7705 -16.0978 -1.00935 10.9546 0.00715892 -2.40169 0.10778 -128.946 -85.2154 -128.189 -23.508 4.63459e-006 -5.90926e-006 15.183 -13.723 3.15426 24.2733 45.8578 -20.9092 -19.9443 -5.73085 0.288263 2.55192 -25.9293 11.1981 -90 0 0 -164.192 15.9566 -13.8987 -25.1762 -5.08416 -0.792632 11.1366 -16.2364 3.4829 -90 0 0
48.7055 95.8021 62.9406 9.21825 -89.6579 -83.9665 -12.5704 -3.79608 5.22892 20.285 -0.335619 -0.582138 2.7794 1.93418e-006 1.65929e-005 -2.11256 13.3112 79.2374 -16.0134 24.6271 7.32769 -0.979868 -15.0308 7.17324 -158.873 -77.1805 -159.488 -177.155 9.83439 75.4109 -15.9525 -1.79283 11.1557 0.005198 -0.43384 0.158691 -147.367 -83.4876 -146.795 -23.508 4.63459e-006 -5.90926e-006 15.7452 -13.6619 2.95526 20.782 46.7543 -17.5044 -18.9914 -5.75593 0.392777 3.5728 -24.9232 11.9469 -90 0 0 -162.637 12.2787 -15.4753 -28.3594 -4.89241 -1.18278 11.121 -14.3166 3.6849 -90 0 0
49.9066 95.5992 62.9776 -77.8609 -88.9251 -172.272 -13.0172 -3.71601 6.78549 20.2391 -0.332916 -0.577974 2.7794 1.93418e-006 1.65929e-005 -2.02503 13.4655 78.7023 -15.5736 24.7701 7.00491 -0.853925 -15.0339 7.23413 -159.07 -77.3936 -159.498 -177.111 9.43845 75.2457 -16.2068 -2.17769 11.213 0.00249242 0.494739 0.182541 -153.279 -82.7265 -152.712 -23.508 4.63459e-006 -5.90926e-006 16.288 -13.5485 2.57406 17.5025 47.3102 -14.4003 -17.9347 -5.79285 0.51616 4.57896 -23.842 13.6427 -90 0 0 -160.681 9.18378 -16.8448 -31.869 -4.65189 -1.63587 10.4812 -13.1477 3.9297 -90 0 0
50.9441 95.4152 63.0171 -86.2658 -87.7564 178.465 -13.3537 -3.59917 7.90161 20.1318 -0.331391 -0.568255 2.7794 1.93418e-006 1.65929e-005 -1.96168 13.7284 78.4161 -15.1789 24.6747 6.52335 -0.395673 -15.0438 7.45557 -159.759 -77.2678 -160.168 -177.092 9.09171 75.168 -16.7983 -2.36357 11.1431 0.00312589 0.155502 0.173816 -150.614 -83.2527 -149.998 -23.508 4.63459e-006 -5.90926e-006 16.7516 -13.4003 2.32074 14.5953 46.794 -11.6836 -17.039 -5.81924 0.624951 5.45849 -21.9353 15.216 -90 0 0 -158.493 6.99717 -17.8986 -35.3958 -4.37819 -2.13344 9.40949 -12.951 4.41251 -90 0 0
51.8094 95.3415 63.1073 -87.784 -86.7404 176.549 -13.528 -3.54392 8.34118 20.0878 -0.329877 -0.564681 2.7794 1.93418e-006 1.65929e-005 -1.92727 14.0523 78.3702 -14.8949 24.2691 6.26773 -0.0213916 -15.0506 7.63649 -160.014 -76.9112 -160.6 -177.068 8.77738 75.0651 -17.5677 -2.36436 11.068 0.00582172 -1.25372 0.137554 -139.027 -84.6752 -138.155 -23.508 4.63459e-006 -5.90926e-006 17.0405 -13.1017 2.46274 12.7477 46.4222 -9.95983 -16.4849 -5.82778 0.693193 6.05817 -20.4301 15.9033 -90 0 0 -156.406 5.41195 -18.5467 -38.5181 -4.11519 -2.55813 7.94962 -13.2939 4.93307 -90 0 0
52.4241 95.3558 63.2595 -88.6988 -86.0853 175.524 -13.6002 -3.5354 8.44996 20.0995 -0.328503 -0.563087 2.7794 1.93418e-006 1.65929e-005 -1.89417 14.221 78.244 -14.9738 23.77 6.46536 0.308255 -15.0556 7.79577 -160.876 -76.4549 -161.498 -177.05 8.51985 74.985 -17.9661 -2.37808 11.0462 0.0067362 -3.59062 0.076574 -109.711 -86.1912 -108.302 -23.508 4.63459e-006 -5.90926e-006 17.0922 -13.0327 2.77438 11.7486 46.5356 -9.10617 -16.2329 -5.82638 0.724355 6.38725 -19.8432 15.9455 -90 0 0 -155.211 4.70641 -18.8334 -39.8313 -4.00967 -2.733 6.22247 -12.0056 5.70519 -90 0 0
52.7497 95.3844 63.4927 -88.9727 -85.8705 175.267 -13.4791 -3.66145 8.48379 20.1423 -0.327399 -0.563064 2.7794 1.93418e-006 1.65929e-005 -1.86432 14.2368 78.069 -15.2625 23.6434 6.67363 0.472358 -15.0578 7.87512 -162.811 -76.701 -163.329 -177.054 8.38422 74.9909 -18.1626 -2.44832 10.977 0.00341062 -5.41233 0.0279102 -70.7596 -86.1139 -68.752 -23.508 4.63459e-006 -5.90926e-006 17.0053 -13.0938 2.93961 11.3571 46.8765 -8.8758 -16.1919 -5.82277 0.729693 6.62001 -19.9426 15.9737 -90 0 0 -155.188 5.89102 -19.0079 -37.8959 -4.16827 -2.47925 7.27797 -11.1847 4.43326 -90 0 0
52.8037 95.3893 63.8298 -88.0355 -86.0152 176.282 -12.9768 -3.73306 8.55987 20.118 -0.326694 -0.564203 2.7794 1.93418e-006 1.65929e-005 -1.87103 14.0727 78.0185 -15.7053 23.8484 6.52292 0.430477 -15.0572 7.85487 -163.682 -77.236 -164.44 -177.09 8.51531 75.1429 -18.3842 -1.88469 10.6932 -0.105904 -6.45004 -0.00461651 -53.2339 -85.2774 -50.8582 -23.508 4.63459e-006 -5.90926e-006 16.6415 -13.3808 2.95409 11.423 47.2206 -9.05622 -16.3495 -5.81502 0.711048 6.86597 -20.4255 15.8549 -90 0 0 -155.676 9.06611 -19.445 -33.2567 -4.55073 -1.8465 9.45234 -12.4363 4.82654 -90 0 0
52.6653 95.3738 64.2731 -88.2398 -85.9314 176.153 -12.5375 -3.36776 8.78103 20.1752 -0.326517 -0.566095 2.7794 1.93418e-006 1.65929e-005 -1.9214 13.8657 78.2212 -16.0546 23.9489 5.89788 0.270689 -15.0551 7.77767 -163.005 -77.3734 -163.531 -177.121 8.66677 75.264 -18.3754 -1.58201 10.4185 -0.184848 -6.45637 -0.00804261 -49.079 -84.73 -46.5508 -23.508 4.63459e-006 -5.90926e-006 16.2062 -13.7979 2.9723 11.5014 47.7288 -9.46083 -16.5855 -5.80567 0.68275 7.19715 -20.8233 15.7016 -90 0 0 -156.571 9.16796 -18.8185 -32.1539 -4.61935 -1.68924 8.86665 -12.748 2.46366 -90 0 0
52.4068 95.4509 64.7412 -93.3281 -85.5782 171.638 -12.6148 -2.84011 8.36895 20.1811 -0.326997 -0.568331 2.7794 1.93418e-006 1.65929e-005 -1.97628 13.898 78.6051 -15.9721 23.327 5.33895 -0.475949 -15.0421 7.41677 -160.445 -77.2985 -160.852 -177.095 8.61493 75.16 -18.2541 -1.68919 10.4039 -0.109695 -6.45039 -0.00485489 -49.3496 -84.609 -46.7699 -23.508 4.63459e-006 -5.90926e-006 16.1425 -13.956 3.1537 11.9343 48.0852 -10.7627 -17.0389 -5.78802 0.62881 7.35719 -20.9769 15.2554 -90 0 0 -157.781 9.64116 -18.174 -30.8129 -4.72972 -1.50753 7.80558 -13.0524 2.66657 -90 0 0
52.0414 95.6144 65.2071 -95.7675 -85.5608 170.087 -12.4046 -2.63365 7.48646 20.1568 -0.328264 -0.570503 2.7794 1.93418e-006 1.65929e-005 -2.01215 14.0139 78.9022 -15.8101 23.0615 5.07775 -1.28648 -15.0229 7.0252 -157.701 -77.5383 -157.975 -177.078 8.52222 75.0946 -18.156 -1.64517 10.3948 -0.0495802 -6.44557 -0.00219608 -47.2948 -84.7509 -44.6891 -23.508 4.63459e-006 -5.90926e-006 16.0732 -13.9476 3.40216 13.1043 48.0331 -12.5749 -17.6459 -5.76446 0.556506 7.32856 -21.129 14.3654 -90 0 0 -158.723 11.5948 -17.7473 -29.2936 -4.84901 -1.31062 7.34444 -14.4854 3.65729 -90 0 0
